<mxfile host="app.diagrams.net" agent="Mozilla/5.0 (Windows NT 10.0; Win64; x64) AppleWebKit/537.36 (KHTML, like Gecko) Chrome/129.0.0.0 Safari/537.36" version="24.7.17">
  <diagram name="Страница — 1" id="qwmdR4soJWc_301-uJRk">
    <mxGraphModel grid="1" page="1" gridSize="10" guides="1" tooltips="1" connect="1" arrows="1" fold="1" pageScale="1" pageWidth="827" pageHeight="1169" math="0" shadow="0">
      <root>
        <mxCell id="0" />
        <mxCell id="1" parent="0" />
        <mxCell id="6db1OodYi0LSPv14cQQK-90" value="&#xa;&lt;b style=&quot;forced-color-adjust: none; color: rgb(0, 0, 0); font-family: Helvetica; font-size: 12px; font-style: normal; font-variant-ligatures: normal; font-variant-caps: normal; letter-spacing: normal; orphans: 2; text-align: center; text-indent: 0px; text-transform: none; widows: 2; word-spacing: 0px; -webkit-text-stroke-width: 0px; white-space: nowrap; background-color: rgb(251, 251, 251); text-decoration-thickness: initial; text-decoration-style: initial; text-decoration-color: initial;&quot;&gt;&lt;font style=&quot;forced-color-adjust: none; font-size: 9px;&quot;&gt;Главная&lt;/font&gt;&lt;/b&gt;&#xa;&#xa;" style="rounded=0;whiteSpace=wrap;html=1;" vertex="1" parent="1">
          <mxGeometry x="40" y="640" width="400" height="520" as="geometry" />
        </mxCell>
        <mxCell id="6db1OodYi0LSPv14cQQK-1" value="" style="rounded=0;whiteSpace=wrap;html=1;" vertex="1" parent="1">
          <mxGeometry x="1720" y="40" width="400" height="520" as="geometry" />
        </mxCell>
        <mxCell id="x74_SV1x-cFVezhLaawV-61" value="&#xa;&lt;b style=&quot;forced-color-adjust: none; color: rgb(0, 0, 0); font-family: Helvetica; font-size: 12px; font-style: normal; font-variant-ligatures: normal; font-variant-caps: normal; letter-spacing: normal; orphans: 2; text-align: center; text-indent: 0px; text-transform: none; widows: 2; word-spacing: 0px; -webkit-text-stroke-width: 0px; white-space: nowrap; background-color: rgb(251, 251, 251); text-decoration-thickness: initial; text-decoration-style: initial; text-decoration-color: initial;&quot;&gt;&lt;font style=&quot;forced-color-adjust: none; font-size: 9px;&quot;&gt;Главная&lt;/font&gt;&lt;/b&gt;&#xa;&#xa;" style="rounded=0;whiteSpace=wrap;html=1;" vertex="1" parent="1">
          <mxGeometry x="40" y="40" width="390" height="520" as="geometry" />
        </mxCell>
        <mxCell id="x74_SV1x-cFVezhLaawV-66" value="" style="rounded=0;whiteSpace=wrap;html=1;" vertex="1" parent="1">
          <mxGeometry x="600" y="40" width="400" height="520" as="geometry" />
        </mxCell>
        <mxCell id="x74_SV1x-cFVezhLaawV-68" value="&lt;b&gt;Поиск&lt;/b&gt;" style="rounded=1;whiteSpace=wrap;html=1;" vertex="1" parent="1">
          <mxGeometry x="190" y="60" width="170" height="30" as="geometry" />
        </mxCell>
        <mxCell id="x74_SV1x-cFVezhLaawV-71" value="" style="shape=image;html=1;verticalAlign=top;verticalLabelPosition=bottom;labelBackgroundColor=#ffffff;imageAspect=0;aspect=fixed;image=https://cdn4.iconfinder.com/data/icons/evil-icons-user-interface/64/magnifier-128.png" vertex="1" parent="1">
          <mxGeometry x="330" y="60" width="30" height="30" as="geometry" />
        </mxCell>
        <mxCell id="x74_SV1x-cFVezhLaawV-73" value="" style="rounded=0;whiteSpace=wrap;html=1;fillColor=#CCCCCC;fontColor=#333333;strokeColor=#666666;" vertex="1" parent="1">
          <mxGeometry x="420" y="40" width="20" height="520" as="geometry" />
        </mxCell>
        <mxCell id="x74_SV1x-cFVezhLaawV-74" value="" style="rounded=0;whiteSpace=wrap;html=1;fillColor=#647687;fontColor=#ffffff;strokeColor=#314354;" vertex="1" parent="1">
          <mxGeometry x="425" y="90" width="10" height="90" as="geometry" />
        </mxCell>
        <mxCell id="x74_SV1x-cFVezhLaawV-79" value="" style="triangle;whiteSpace=wrap;html=1;direction=north;fillColor=#647687;fontColor=#ffffff;strokeColor=#314354;" vertex="1" parent="1">
          <mxGeometry x="425" y="47.5" width="10" height="20" as="geometry" />
        </mxCell>
        <mxCell id="x74_SV1x-cFVezhLaawV-81" value="" style="triangle;whiteSpace=wrap;html=1;direction=south;fillColor=#647687;fontColor=#ffffff;strokeColor=#314354;" vertex="1" parent="1">
          <mxGeometry x="425" y="535" width="10" height="20" as="geometry" />
        </mxCell>
        <mxCell id="x74_SV1x-cFVezhLaawV-92" value="" style="endArrow=none;html=1;rounded=0;" edge="1" parent="1">
          <mxGeometry width="50" height="50" relative="1" as="geometry">
            <mxPoint x="420" y="530" as="sourcePoint" />
            <mxPoint x="440" y="530" as="targetPoint" />
          </mxGeometry>
        </mxCell>
        <mxCell id="x74_SV1x-cFVezhLaawV-94" value="&lt;b&gt;Видео№1&lt;/b&gt;" style="rounded=1;whiteSpace=wrap;html=1;shadow=1;" vertex="1" parent="1">
          <mxGeometry x="150" y="140" width="120" height="60" as="geometry" />
        </mxCell>
        <mxCell id="x74_SV1x-cFVezhLaawV-95" value="&lt;b&gt;Видео№2&lt;/b&gt;" style="rounded=1;whiteSpace=wrap;html=1;shadow=1;" vertex="1" parent="1">
          <mxGeometry x="285" y="140" width="120" height="60" as="geometry" />
        </mxCell>
        <mxCell id="x74_SV1x-cFVezhLaawV-96" value="&lt;b&gt;Видео№3&lt;/b&gt;" style="rounded=1;whiteSpace=wrap;html=1;shadow=1;" vertex="1" parent="1">
          <mxGeometry x="150" y="250" width="120" height="60" as="geometry" />
        </mxCell>
        <mxCell id="x74_SV1x-cFVezhLaawV-97" value="&lt;b&gt;Видео№4&lt;/b&gt;" style="rounded=1;whiteSpace=wrap;html=1;shadow=1;" vertex="1" parent="1">
          <mxGeometry x="285" y="250" width="120" height="60" as="geometry" />
        </mxCell>
        <mxCell id="x74_SV1x-cFVezhLaawV-98" value="&lt;b&gt;Видео№5&lt;/b&gt;" style="rounded=1;whiteSpace=wrap;html=1;shadow=1;" vertex="1" parent="1">
          <mxGeometry x="150" y="360" width="120" height="60" as="geometry" />
        </mxCell>
        <mxCell id="x74_SV1x-cFVezhLaawV-99" value="&lt;b&gt;Видео№6&lt;/b&gt;" style="rounded=1;whiteSpace=wrap;html=1;shadow=1;" vertex="1" parent="1">
          <mxGeometry x="285" y="360" width="120" height="60" as="geometry" />
        </mxCell>
        <mxCell id="x74_SV1x-cFVezhLaawV-100" value="&lt;b&gt;Видео№7&lt;/b&gt;" style="rounded=1;whiteSpace=wrap;html=1;shadow=1;" vertex="1" parent="1">
          <mxGeometry x="150" y="470" width="120" height="60" as="geometry" />
        </mxCell>
        <mxCell id="x74_SV1x-cFVezhLaawV-101" value="&lt;b&gt;Видео№9&lt;/b&gt;" style="rounded=1;whiteSpace=wrap;html=1;shadow=1;" vertex="1" parent="1">
          <mxGeometry x="285" y="470" width="120" height="60" as="geometry" />
        </mxCell>
        <mxCell id="x74_SV1x-cFVezhLaawV-106" value="&lt;i&gt;Название видео №1&lt;/i&gt;" style="text;html=1;align=center;verticalAlign=middle;resizable=0;points=[];autosize=1;strokeColor=none;fillColor=none;" vertex="1" parent="1">
          <mxGeometry x="140" y="200" width="140" height="30" as="geometry" />
        </mxCell>
        <mxCell id="x74_SV1x-cFVezhLaawV-107" value="&lt;i&gt;Название видео №2&lt;/i&gt;" style="text;html=1;align=center;verticalAlign=middle;resizable=0;points=[];autosize=1;strokeColor=none;fillColor=none;" vertex="1" parent="1">
          <mxGeometry x="270" y="200" width="140" height="30" as="geometry" />
        </mxCell>
        <mxCell id="x74_SV1x-cFVezhLaawV-108" value="&lt;i&gt;Название видео №3&lt;/i&gt;" style="text;html=1;align=center;verticalAlign=middle;resizable=0;points=[];autosize=1;strokeColor=none;fillColor=none;" vertex="1" parent="1">
          <mxGeometry x="140" y="310" width="140" height="30" as="geometry" />
        </mxCell>
        <mxCell id="x74_SV1x-cFVezhLaawV-109" value="&lt;i&gt;Название видео №4&lt;/i&gt;" style="text;html=1;align=center;verticalAlign=middle;resizable=0;points=[];autosize=1;strokeColor=none;fillColor=none;" vertex="1" parent="1">
          <mxGeometry x="270" y="310" width="140" height="30" as="geometry" />
        </mxCell>
        <mxCell id="x74_SV1x-cFVezhLaawV-110" value="&lt;i&gt;Название видео №5&lt;/i&gt;" style="text;html=1;align=center;verticalAlign=middle;resizable=0;points=[];autosize=1;strokeColor=none;fillColor=none;" vertex="1" parent="1">
          <mxGeometry x="140" y="420" width="140" height="30" as="geometry" />
        </mxCell>
        <mxCell id="x74_SV1x-cFVezhLaawV-111" value="&lt;i&gt;Название видео №6&lt;/i&gt;" style="text;html=1;align=center;verticalAlign=middle;resizable=0;points=[];autosize=1;strokeColor=none;fillColor=none;" vertex="1" parent="1">
          <mxGeometry x="274" y="420" width="140" height="30" as="geometry" />
        </mxCell>
        <mxCell id="x74_SV1x-cFVezhLaawV-112" value="&lt;i&gt;Название видео №7&lt;/i&gt;" style="text;html=1;align=center;verticalAlign=middle;resizable=0;points=[];autosize=1;strokeColor=none;fillColor=none;" vertex="1" parent="1">
          <mxGeometry x="140" y="530" width="140" height="30" as="geometry" />
        </mxCell>
        <mxCell id="x74_SV1x-cFVezhLaawV-113" value="&lt;i&gt;Название видео №8&lt;/i&gt;" style="text;html=1;align=center;verticalAlign=middle;resizable=0;points=[];autosize=1;strokeColor=none;fillColor=none;" vertex="1" parent="1">
          <mxGeometry x="275" y="530" width="140" height="30" as="geometry" />
        </mxCell>
        <mxCell id="x74_SV1x-cFVezhLaawV-120" value="" style="triangle;html=1;whiteSpace=wrap;fillColor=#FF9999;" vertex="1" parent="1">
          <mxGeometry x="380" y="160" width="10" height="20" as="geometry" />
        </mxCell>
        <mxCell id="x74_SV1x-cFVezhLaawV-123" value="" style="triangle;html=1;whiteSpace=wrap;fillColor=#FF9999;" vertex="1" parent="1">
          <mxGeometry x="380" y="270" width="10" height="20" as="geometry" />
        </mxCell>
        <mxCell id="x74_SV1x-cFVezhLaawV-124" value="" style="triangle;html=1;whiteSpace=wrap;fillColor=#FF9999;" vertex="1" parent="1">
          <mxGeometry x="380" y="380" width="10" height="20" as="geometry" />
        </mxCell>
        <mxCell id="x74_SV1x-cFVezhLaawV-125" value="" style="triangle;html=1;whiteSpace=wrap;fillColor=#FF9999;" vertex="1" parent="1">
          <mxGeometry x="380" y="490" width="10" height="20" as="geometry" />
        </mxCell>
        <mxCell id="x74_SV1x-cFVezhLaawV-128" value="" style="triangle;html=1;whiteSpace=wrap;fillColor=#FF9999;" vertex="1" parent="1">
          <mxGeometry x="245" y="160" width="10" height="20" as="geometry" />
        </mxCell>
        <mxCell id="x74_SV1x-cFVezhLaawV-131" value="" style="triangle;html=1;whiteSpace=wrap;fillColor=#FF9999;" vertex="1" parent="1">
          <mxGeometry x="245" y="270" width="10" height="20" as="geometry" />
        </mxCell>
        <mxCell id="x74_SV1x-cFVezhLaawV-132" value="" style="triangle;html=1;whiteSpace=wrap;fillColor=#FF9999;" vertex="1" parent="1">
          <mxGeometry x="245" y="380" width="10" height="20" as="geometry" />
        </mxCell>
        <mxCell id="x74_SV1x-cFVezhLaawV-133" value="" style="triangle;html=1;whiteSpace=wrap;fillColor=#FF9999;" vertex="1" parent="1">
          <mxGeometry x="245" y="490" width="10" height="20" as="geometry" />
        </mxCell>
        <mxCell id="9MEbB68s_isT1Yj_m3ho-9" value="" style="rounded=1;whiteSpace=wrap;html=1;fillColor=#E6E6E6;" vertex="1" parent="1">
          <mxGeometry x="50" y="147.5" width="90" height="35" as="geometry" />
        </mxCell>
        <mxCell id="x74_SV1x-cFVezhLaawV-102" value="" style="sketch=0;pointerEvents=1;shadow=0;dashed=0;html=1;strokeColor=none;fillColor=#666666;labelPosition=center;verticalLabelPosition=bottom;verticalAlign=top;outlineConnect=0;align=center;shape=mxgraph.office.concepts.home;" vertex="1" parent="1">
          <mxGeometry x="60" y="155" width="20" height="20" as="geometry" />
        </mxCell>
        <mxCell id="x74_SV1x-cFVezhLaawV-114" value="&lt;b&gt;&lt;font style=&quot;font-size: 9px;&quot;&gt;Главная&lt;/font&gt;&lt;/b&gt;" style="text;html=1;align=center;verticalAlign=middle;resizable=0;points=[];autosize=1;strokeColor=none;fillColor=none;" vertex="1" parent="1">
          <mxGeometry x="75" y="152.5" width="60" height="30" as="geometry" />
        </mxCell>
        <mxCell id="CNAPJQVcdsXgHTbzYZQy-6" value="" style="endArrow=none;html=1;rounded=0;" edge="1" parent="1">
          <mxGeometry width="50" height="50" relative="1" as="geometry">
            <mxPoint x="420" y="77" as="sourcePoint" />
            <mxPoint x="440" y="77" as="targetPoint" />
          </mxGeometry>
        </mxCell>
        <mxCell id="CNAPJQVcdsXgHTbzYZQy-8" value="" style="dashed=0;outlineConnect=0;html=1;align=center;labelPosition=center;verticalLabelPosition=bottom;verticalAlign=top;shape=mxgraph.weblogos.youtube;fillColor=#FF2626;gradientColor=#B5171F" vertex="1" parent="1">
          <mxGeometry x="50" y="57.099999999999994" width="90" height="35.8" as="geometry" />
        </mxCell>
        <mxCell id="CNAPJQVcdsXgHTbzYZQy-10" value="" style="rounded=1;whiteSpace=wrap;html=1;fillColor=#E6E6E6;" vertex="1" parent="1">
          <mxGeometry x="50" y="200" width="90" height="35" as="geometry" />
        </mxCell>
        <mxCell id="CNAPJQVcdsXgHTbzYZQy-11" value="" style="verticalLabelPosition=bottom;verticalAlign=top;html=1;shape=mxgraph.basic.heart;fillColor=#666666;" vertex="1" parent="1">
          <mxGeometry x="60" y="207.5" width="20" height="20" as="geometry" />
        </mxCell>
        <mxCell id="CNAPJQVcdsXgHTbzYZQy-12" value="&lt;b&gt;&lt;font style=&quot;font-size: 10px;&quot;&gt;Избранное&lt;/font&gt;&lt;/b&gt;" style="text;html=1;align=center;verticalAlign=middle;resizable=0;points=[];autosize=1;strokeColor=none;fillColor=none;" vertex="1" parent="1">
          <mxGeometry x="70" y="202.5" width="80" height="30" as="geometry" />
        </mxCell>
        <mxCell id="CNAPJQVcdsXgHTbzYZQy-13" value="" style="rounded=0;whiteSpace=wrap;html=1;fillColor=#CCCCCC;fontColor=#333333;strokeColor=#666666;" vertex="1" parent="1">
          <mxGeometry x="980" y="40" width="20" height="520" as="geometry" />
        </mxCell>
        <mxCell id="CNAPJQVcdsXgHTbzYZQy-14" value="" style="triangle;whiteSpace=wrap;html=1;direction=south;fillColor=#647687;fontColor=#ffffff;strokeColor=#314354;" vertex="1" parent="1">
          <mxGeometry x="985" y="535" width="10" height="20" as="geometry" />
        </mxCell>
        <mxCell id="CNAPJQVcdsXgHTbzYZQy-17" value="" style="triangle;whiteSpace=wrap;html=1;direction=north;fillColor=#647687;fontColor=#ffffff;strokeColor=#314354;" vertex="1" parent="1">
          <mxGeometry x="985" y="47.5" width="10" height="20" as="geometry" />
        </mxCell>
        <mxCell id="CNAPJQVcdsXgHTbzYZQy-18" value="" style="rounded=0;whiteSpace=wrap;html=1;fillColor=#647687;fontColor=#ffffff;strokeColor=#314354;" vertex="1" parent="1">
          <mxGeometry x="985" y="90" width="10" height="90" as="geometry" />
        </mxCell>
        <mxCell id="CNAPJQVcdsXgHTbzYZQy-20" value="" style="verticalLabelPosition=bottom;shadow=0;dashed=0;align=center;html=1;verticalAlign=top;strokeWidth=3;shape=mxgraph.mockup.containers.videoPlayer;strokeColor=#333333;strokeColor2=#008cff;strokeColor3=#c4c4c4;textColor=#666666;fillColor2=#008cff;barHeight=30;barPos=20;" vertex="1" parent="1">
          <mxGeometry x="610" y="100" width="360" height="297.1" as="geometry" />
        </mxCell>
        <mxCell id="CNAPJQVcdsXgHTbzYZQy-21" value="&lt;font style=&quot;font-size: 18px;&quot;&gt;&lt;b&gt;Видео№2&lt;/b&gt;&lt;/font&gt;" style="text;strokeColor=none;align=center;fillColor=none;html=1;verticalAlign=middle;whiteSpace=wrap;rounded=0;" vertex="1" parent="1">
          <mxGeometry x="730" y="186.25" width="120" height="87.5" as="geometry" />
        </mxCell>
        <mxCell id="CNAPJQVcdsXgHTbzYZQy-24" value="" style="rounded=1;whiteSpace=wrap;html=1;fillColor=#E6E6E6;" vertex="1" parent="1">
          <mxGeometry x="840" y="405" width="120" height="20" as="geometry" />
        </mxCell>
        <mxCell id="CNAPJQVcdsXgHTbzYZQy-27" value="&lt;b&gt;Добавить&lt;/b&gt;" style="text;html=1;align=center;verticalAlign=middle;resizable=0;points=[];autosize=1;strokeColor=none;fillColor=none;" vertex="1" parent="1">
          <mxGeometry x="870" y="400" width="80" height="30" as="geometry" />
        </mxCell>
        <mxCell id="CNAPJQVcdsXgHTbzYZQy-28" value="&lt;font style=&quot;font-size: 36px;&quot;&gt;&lt;b style=&quot;&quot;&gt;&lt;i style=&quot;&quot;&gt;Я, как пользователь веб-сервиса YouTube, хочу добавлять видео в список&lt;/i&gt;&lt;/b&gt;&lt;/font&gt;&lt;div&gt;&lt;font style=&quot;font-size: 36px;&quot;&gt;&lt;b style=&quot;&quot;&gt;&lt;i style=&quot;&quot;&gt;понравившихся, чтобы в дальнейшем пересматривать их.&lt;/i&gt;&lt;/b&gt;&lt;/font&gt;&lt;/div&gt;" style="text;html=1;align=center;verticalAlign=middle;resizable=0;points=[];autosize=1;strokeColor=none;fillColor=none;" vertex="1" parent="1">
          <mxGeometry x="430" y="-215" width="1390" height="100" as="geometry" />
        </mxCell>
        <mxCell id="CNAPJQVcdsXgHTbzYZQy-29" value="" style="shape=mxgraph.ios7.icons.user;fillColor=#ffffff;strokeColor=#253858" vertex="1" parent="1">
          <mxGeometry x="604" y="445" width="32" height="32" as="geometry" />
        </mxCell>
        <mxCell id="CNAPJQVcdsXgHTbzYZQy-30" value="Jim Bunnings" style="html=1;fillColor=none;strokeColor=none;fontSize=12;align=left;fontColor=#000000;whiteSpace=wrap" vertex="1" parent="1">
          <mxGeometry x="645.5" y="436" width="90" height="20" as="geometry" />
        </mxCell>
        <mxCell id="CNAPJQVcdsXgHTbzYZQy-31" value="AUTHOR" style="rounded=1;arcSize=5;fillColor=#F2F3F5;strokeColor=none;fontColor=#596780;align=center;verticalAlign=middle;whiteSpace=wrap;fontSize=10;fontStyle=1;html=1" vertex="1" parent="1">
          <mxGeometry x="730" y="436" width="55" height="20" as="geometry" />
        </mxCell>
        <mxCell id="CNAPJQVcdsXgHTbzYZQy-32" value="30, August 2016" style="html=1;fillColor=none;strokeColor=none;fontSize=12;align=left;fontColor=#596780;whiteSpace=wrap" vertex="1" parent="1">
          <mxGeometry x="795.5" y="436" width="110" height="20" as="geometry" />
        </mxCell>
        <mxCell id="CNAPJQVcdsXgHTbzYZQy-33" value="Thanks for the write-up." style="html=1;fillColor=none;strokeColor=none;fontSize=12;align=left;fontColor=#000000;whiteSpace=wrap" vertex="1" parent="1">
          <mxGeometry x="645.5" y="462" width="240" height="20" as="geometry" />
        </mxCell>
        <mxCell id="CNAPJQVcdsXgHTbzYZQy-34" value="&lt;font style=&quot;font-size: 9px;&quot;&gt;You&#39;ve mentioned the reasons for changing the name. But what were the reasons for holding onto the old name so long? I remember &lt;font color=&quot;#4c9aff&quot; style=&quot;background-color: rgb(244 , 245 , 247)&quot;&gt;@Jesse Byler&lt;/font&gt; suggesting the name change back in January in: Re: Y U NO use Confluence&lt;/font&gt;" style="html=1;fillColor=none;strokeColor=none;fontSize=12;align=left;fontColor=#000000;whiteSpace=wrap;verticalAlign=top" vertex="1" parent="1">
          <mxGeometry x="645.5" y="490" width="324.5" height="60" as="geometry" />
        </mxCell>
        <mxCell id="CNAPJQVcdsXgHTbzYZQy-36" value="" style="endArrow=none;html=1;rounded=0;" edge="1" parent="1">
          <mxGeometry width="50" height="50" relative="1" as="geometry">
            <mxPoint x="980" y="74.5" as="sourcePoint" />
            <mxPoint x="1000" y="75" as="targetPoint" />
          </mxGeometry>
        </mxCell>
        <mxCell id="CNAPJQVcdsXgHTbzYZQy-38" value="" style="endArrow=none;html=1;rounded=0;" edge="1" parent="1">
          <mxGeometry width="50" height="50" relative="1" as="geometry">
            <mxPoint x="980" y="529" as="sourcePoint" />
            <mxPoint x="1000" y="529" as="targetPoint" />
          </mxGeometry>
        </mxCell>
        <mxCell id="CNAPJQVcdsXgHTbzYZQy-39" value="" style="rounded=0;whiteSpace=wrap;html=1;" vertex="1" parent="1">
          <mxGeometry x="1160" y="40" width="400" height="520" as="geometry" />
        </mxCell>
        <mxCell id="CNAPJQVcdsXgHTbzYZQy-40" value="" style="rounded=0;whiteSpace=wrap;html=1;fillColor=#CCCCCC;fontColor=#333333;strokeColor=#666666;" vertex="1" parent="1">
          <mxGeometry x="1540" y="40" width="20" height="520" as="geometry" />
        </mxCell>
        <mxCell id="CNAPJQVcdsXgHTbzYZQy-41" value="" style="rounded=0;whiteSpace=wrap;html=1;fillColor=#647687;fontColor=#ffffff;strokeColor=#314354;" vertex="1" parent="1">
          <mxGeometry x="1545" y="90" width="10" height="90" as="geometry" />
        </mxCell>
        <mxCell id="CNAPJQVcdsXgHTbzYZQy-42" value="" style="triangle;whiteSpace=wrap;html=1;direction=north;fillColor=#647687;fontColor=#ffffff;strokeColor=#314354;" vertex="1" parent="1">
          <mxGeometry x="1545" y="47.5" width="10" height="20" as="geometry" />
        </mxCell>
        <mxCell id="CNAPJQVcdsXgHTbzYZQy-43" value="" style="triangle;whiteSpace=wrap;html=1;direction=south;fillColor=#647687;fontColor=#ffffff;strokeColor=#314354;" vertex="1" parent="1">
          <mxGeometry x="1545" y="535" width="10" height="20" as="geometry" />
        </mxCell>
        <mxCell id="CNAPJQVcdsXgHTbzYZQy-44" value="" style="verticalLabelPosition=bottom;verticalAlign=top;html=1;shape=mxgraph.basic.heart;fillColor=#666666;" vertex="1" parent="1">
          <mxGeometry x="850" y="410" width="20" height="10" as="geometry" />
        </mxCell>
        <mxCell id="CNAPJQVcdsXgHTbzYZQy-48" value="&lt;b&gt;Видео№1&lt;/b&gt;" style="rounded=1;whiteSpace=wrap;html=1;shadow=1;" vertex="1" parent="1">
          <mxGeometry x="1775" y="195" width="120" height="60" as="geometry" />
        </mxCell>
        <mxCell id="CNAPJQVcdsXgHTbzYZQy-52" value="" style="rounded=1;whiteSpace=wrap;html=1;fillColor=#E6E6E6;" vertex="1" parent="1">
          <mxGeometry x="1790" y="57.5" width="260" height="42.5" as="geometry" />
        </mxCell>
        <mxCell id="CNAPJQVcdsXgHTbzYZQy-53" value="&lt;font style=&quot;font-size: 24px;&quot;&gt;&lt;b&gt;Избранное&lt;/b&gt;&lt;/font&gt;" style="text;html=1;align=center;verticalAlign=middle;resizable=0;points=[];autosize=1;strokeColor=none;fillColor=none;" vertex="1" parent="1">
          <mxGeometry x="1845" y="57.1" width="150" height="40" as="geometry" />
        </mxCell>
        <mxCell id="CNAPJQVcdsXgHTbzYZQy-54" value="&lt;b&gt;Видео№2&lt;/b&gt;" style="rounded=1;whiteSpace=wrap;html=1;shadow=1;" vertex="1" parent="1">
          <mxGeometry x="1775" y="290" width="120" height="60" as="geometry" />
        </mxCell>
        <mxCell id="CNAPJQVcdsXgHTbzYZQy-55" value="&lt;b&gt;Видео№3&lt;/b&gt;" style="rounded=1;whiteSpace=wrap;html=1;shadow=1;" vertex="1" parent="1">
          <mxGeometry x="1775" y="385" width="120" height="60" as="geometry" />
        </mxCell>
        <mxCell id="CNAPJQVcdsXgHTbzYZQy-56" value="&lt;b&gt;Видео№6&lt;/b&gt;" style="rounded=1;whiteSpace=wrap;html=1;shadow=1;" vertex="1" parent="1">
          <mxGeometry x="1775" y="482" width="120" height="60" as="geometry" />
        </mxCell>
        <mxCell id="CNAPJQVcdsXgHTbzYZQy-57" value="&lt;b&gt;Поиск&lt;/b&gt;" style="rounded=1;whiteSpace=wrap;html=1;" vertex="1" parent="1">
          <mxGeometry x="1775" y="125" width="290" height="30" as="geometry" />
        </mxCell>
        <mxCell id="CNAPJQVcdsXgHTbzYZQy-59" value="" style="shape=image;html=1;verticalAlign=top;verticalLabelPosition=bottom;labelBackgroundColor=#ffffff;imageAspect=0;aspect=fixed;image=https://cdn4.iconfinder.com/data/icons/evil-icons-user-interface/64/magnifier-128.png" vertex="1" parent="1">
          <mxGeometry x="2035" y="125" width="30" height="30" as="geometry" />
        </mxCell>
        <mxCell id="CNAPJQVcdsXgHTbzYZQy-60" value="&lt;i&gt;Название видео №1&lt;/i&gt;" style="text;html=1;align=center;verticalAlign=middle;resizable=0;points=[];autosize=1;strokeColor=none;fillColor=none;" vertex="1" parent="1">
          <mxGeometry x="1913" y="210" width="140" height="30" as="geometry" />
        </mxCell>
        <mxCell id="CNAPJQVcdsXgHTbzYZQy-61" value="&lt;i&gt;Название видео №2&lt;/i&gt;" style="text;html=1;align=center;verticalAlign=middle;resizable=0;points=[];autosize=1;strokeColor=none;fillColor=none;" vertex="1" parent="1">
          <mxGeometry x="1910" y="305" width="140" height="30" as="geometry" />
        </mxCell>
        <mxCell id="CNAPJQVcdsXgHTbzYZQy-62" value="&lt;i&gt;Название видео №3&lt;/i&gt;" style="text;html=1;align=center;verticalAlign=middle;resizable=0;points=[];autosize=1;strokeColor=none;fillColor=none;" vertex="1" parent="1">
          <mxGeometry x="1913" y="405" width="140" height="30" as="geometry" />
        </mxCell>
        <mxCell id="CNAPJQVcdsXgHTbzYZQy-63" value="&lt;i&gt;Название видео №4&lt;/i&gt;" style="text;html=1;align=center;verticalAlign=middle;resizable=0;points=[];autosize=1;strokeColor=none;fillColor=none;" vertex="1" parent="1">
          <mxGeometry x="1920" y="497" width="140" height="30" as="geometry" />
        </mxCell>
        <mxCell id="CNAPJQVcdsXgHTbzYZQy-64" value="1" style="ellipse;whiteSpace=wrap;html=1;aspect=fixed;strokeWidth=2;fontFamily=Tahoma;spacingBottom=4;spacingRight=2;strokeColor=#d3d3d3;" vertex="1" parent="1">
          <mxGeometry x="1740" y="215" width="20" height="20" as="geometry" />
        </mxCell>
        <mxCell id="CNAPJQVcdsXgHTbzYZQy-67" value="2" style="ellipse;whiteSpace=wrap;html=1;aspect=fixed;strokeWidth=2;fontFamily=Tahoma;spacingBottom=4;spacingRight=2;strokeColor=#d3d3d3;" vertex="1" parent="1">
          <mxGeometry x="1740" y="310" width="20" height="20" as="geometry" />
        </mxCell>
        <mxCell id="CNAPJQVcdsXgHTbzYZQy-68" value="3" style="ellipse;whiteSpace=wrap;html=1;aspect=fixed;strokeWidth=2;fontFamily=Tahoma;spacingBottom=4;spacingRight=2;strokeColor=#d3d3d3;" vertex="1" parent="1">
          <mxGeometry x="1740" y="405" width="20" height="20" as="geometry" />
        </mxCell>
        <mxCell id="CNAPJQVcdsXgHTbzYZQy-69" value="4" style="ellipse;whiteSpace=wrap;html=1;aspect=fixed;strokeWidth=2;fontFamily=Tahoma;spacingBottom=4;spacingRight=2;strokeColor=#d3d3d3;" vertex="1" parent="1">
          <mxGeometry x="1740" y="502" width="20" height="20" as="geometry" />
        </mxCell>
        <mxCell id="CNAPJQVcdsXgHTbzYZQy-75" style="edgeStyle=orthogonalEdgeStyle;rounded=0;orthogonalLoop=1;jettySize=auto;html=1;strokeWidth=2;strokeColor=#FF0000;" edge="1" parent="1" source="CNAPJQVcdsXgHTbzYZQy-73" target="CNAPJQVcdsXgHTbzYZQy-20">
          <mxGeometry relative="1" as="geometry" />
        </mxCell>
        <mxCell id="CNAPJQVcdsXgHTbzYZQy-73" value="" style="rounded=1;whiteSpace=wrap;html=1;gradientColor=none;strokeColor=#a21a1a;fillColor=none;strokeWidth=2;" vertex="1" parent="1">
          <mxGeometry x="280" y="133.75" width="130" height="72.5" as="geometry" />
        </mxCell>
        <mxCell id="CNAPJQVcdsXgHTbzYZQy-119" style="edgeStyle=orthogonalEdgeStyle;rounded=0;orthogonalLoop=1;jettySize=auto;html=1;exitX=1;exitY=0.5;exitDx=0;exitDy=0;strokeWidth=2;strokeColor=#FF0000;" edge="1" parent="1" source="CNAPJQVcdsXgHTbzYZQy-76">
          <mxGeometry relative="1" as="geometry">
            <mxPoint x="1040" y="680" as="targetPoint" />
          </mxGeometry>
        </mxCell>
        <mxCell id="CNAPJQVcdsXgHTbzYZQy-76" value="" style="rounded=1;whiteSpace=wrap;html=1;strokeColor=#FF3333;fillColor=none;strokeWidth=2;" vertex="1" parent="1">
          <mxGeometry x="830" y="402" width="140" height="30" as="geometry" />
        </mxCell>
        <mxCell id="6db1OodYi0LSPv14cQQK-27" style="edgeStyle=orthogonalEdgeStyle;rounded=0;orthogonalLoop=1;jettySize=auto;html=1;entryX=0.5;entryY=0;entryDx=0;entryDy=0;strokeColor=#FF0000;strokeWidth=2;" edge="1" parent="1" source="CNAPJQVcdsXgHTbzYZQy-87" target="6db1OodYi0LSPv14cQQK-1">
          <mxGeometry relative="1" as="geometry">
            <Array as="points">
              <mxPoint x="20" y="218" />
              <mxPoint x="20" y="-50" />
              <mxPoint x="1920" y="-50" />
            </Array>
          </mxGeometry>
        </mxCell>
        <mxCell id="CNAPJQVcdsXgHTbzYZQy-87" value="" style="rounded=1;whiteSpace=wrap;html=1;fillColor=none;strokeWidth=2;strokeColor=#FF0000;" vertex="1" parent="1">
          <mxGeometry x="45" y="192.5" width="100" height="50" as="geometry" />
        </mxCell>
        <mxCell id="CNAPJQVcdsXgHTbzYZQy-93" value="" style="rounded=1;whiteSpace=wrap;html=1;fillColor=#E6E6E6;" vertex="1" parent="1">
          <mxGeometry x="610" y="47.5" width="90" height="35" as="geometry" />
        </mxCell>
        <mxCell id="CNAPJQVcdsXgHTbzYZQy-94" value="&lt;b&gt;&lt;font style=&quot;font-size: 11px;&quot;&gt;Главная&lt;/font&gt;&lt;/b&gt;" style="text;html=1;align=center;verticalAlign=middle;resizable=0;points=[];autosize=1;strokeColor=none;fillColor=none;" vertex="1" parent="1">
          <mxGeometry x="630" y="55" width="70" height="30" as="geometry" />
        </mxCell>
        <mxCell id="CNAPJQVcdsXgHTbzYZQy-95" value="" style="sketch=0;pointerEvents=1;shadow=0;dashed=0;html=1;strokeColor=none;fillColor=#666666;labelPosition=center;verticalLabelPosition=bottom;verticalAlign=top;outlineConnect=0;align=center;shape=mxgraph.office.concepts.home;" vertex="1" parent="1">
          <mxGeometry x="60" y="155" width="20" height="20" as="geometry" />
        </mxCell>
        <mxCell id="CNAPJQVcdsXgHTbzYZQy-96" value="" style="sketch=0;pointerEvents=1;shadow=0;dashed=0;html=1;strokeColor=none;fillColor=#666666;labelPosition=center;verticalLabelPosition=bottom;verticalAlign=top;outlineConnect=0;align=center;shape=mxgraph.office.concepts.home;" vertex="1" parent="1">
          <mxGeometry x="616" y="55" width="20" height="20" as="geometry" />
        </mxCell>
        <mxCell id="CNAPJQVcdsXgHTbzYZQy-98" style="edgeStyle=orthogonalEdgeStyle;rounded=0;orthogonalLoop=1;jettySize=auto;html=1;entryX=0.5;entryY=0;entryDx=0;entryDy=0;strokeColor=#FF0000;strokeWidth=2;" edge="1" parent="1" source="CNAPJQVcdsXgHTbzYZQy-97" target="x74_SV1x-cFVezhLaawV-61">
          <mxGeometry relative="1" as="geometry" />
        </mxCell>
        <mxCell id="CNAPJQVcdsXgHTbzYZQy-97" value="" style="rounded=1;whiteSpace=wrap;html=1;fillColor=none;strokeWidth=2;strokeColor=#FF0000;" vertex="1" parent="1">
          <mxGeometry x="601.25" y="42.9" width="107.5" height="47.1" as="geometry" />
        </mxCell>
        <mxCell id="CNAPJQVcdsXgHTbzYZQy-99" value="" style="rounded=1;whiteSpace=wrap;html=1;fillColor=#E6E6E6;" vertex="1" parent="1">
          <mxGeometry x="728.75" y="48.75" width="90" height="35" as="geometry" />
        </mxCell>
        <mxCell id="CNAPJQVcdsXgHTbzYZQy-100" value="&lt;b&gt;&lt;font style=&quot;font-size: 10px;&quot;&gt;Избранное&lt;/font&gt;&lt;/b&gt;" style="text;html=1;align=center;verticalAlign=middle;resizable=0;points=[];autosize=1;strokeColor=none;fillColor=none;" vertex="1" parent="1">
          <mxGeometry x="747" y="54.99999999999999" width="80" height="30" as="geometry" />
        </mxCell>
        <mxCell id="CNAPJQVcdsXgHTbzYZQy-101" value="" style="verticalLabelPosition=bottom;verticalAlign=top;html=1;shape=mxgraph.basic.heart;fillColor=#666666;" vertex="1" parent="1">
          <mxGeometry x="735.5" y="58.75" width="20" height="15" as="geometry" />
        </mxCell>
        <mxCell id="CNAPJQVcdsXgHTbzYZQy-104" value="" style="rounded=1;whiteSpace=wrap;html=1;fillColor=none;strokeWidth=2;strokeColor=#FF0000;" vertex="1" parent="1">
          <mxGeometry x="720" y="42.9" width="107.5" height="47.1" as="geometry" />
        </mxCell>
        <mxCell id="CNAPJQVcdsXgHTbzYZQy-106" value="" style="triangle;html=1;whiteSpace=wrap;fillColor=#FF9999;" vertex="1" parent="1">
          <mxGeometry x="1870" y="502" width="10" height="20" as="geometry" />
        </mxCell>
        <mxCell id="CNAPJQVcdsXgHTbzYZQy-107" value="" style="triangle;html=1;whiteSpace=wrap;fillColor=#FF9999;" vertex="1" parent="1">
          <mxGeometry x="1870" y="408" width="10" height="18" as="geometry" />
        </mxCell>
        <mxCell id="CNAPJQVcdsXgHTbzYZQy-111" value="" style="triangle;html=1;whiteSpace=wrap;fillColor=#FF9999;" vertex="1" parent="1">
          <mxGeometry x="1870" y="215" width="10" height="20" as="geometry" />
        </mxCell>
        <mxCell id="CNAPJQVcdsXgHTbzYZQy-120" value="" style="rounded=1;whiteSpace=wrap;html=1;fillColor=#d5e8d4;strokeColor=#82b366;" vertex="1" parent="1">
          <mxGeometry x="985" y="752.5" width="120" height="20" as="geometry" />
        </mxCell>
        <mxCell id="CNAPJQVcdsXgHTbzYZQy-121" value="" style="verticalLabelPosition=bottom;verticalAlign=top;html=1;shape=mxgraph.basic.heart;fillColor=#f8cecc;strokeColor=#b85450;" vertex="1" parent="1">
          <mxGeometry x="995" y="757.5" width="20" height="10" as="geometry" />
        </mxCell>
        <mxCell id="ATV0B9zLNPPL4cUdhzJt-3" value="" style="html=1;verticalLabelPosition=bottom;align=center;labelBackgroundColor=#ffffff;verticalAlign=top;strokeWidth=2;strokeColor=#0080F0;shadow=0;dashed=0;shape=mxgraph.ios7.icons.user;" vertex="1" parent="1">
          <mxGeometry x="380" y="60" width="30" height="30" as="geometry" />
        </mxCell>
        <mxCell id="ATV0B9zLNPPL4cUdhzJt-4" value="" style="html=1;verticalLabelPosition=bottom;align=center;labelBackgroundColor=#ffffff;verticalAlign=top;strokeWidth=2;strokeColor=#0080F0;shadow=0;dashed=0;shape=mxgraph.ios7.icons.user;" vertex="1" parent="1">
          <mxGeometry x="1500" y="52.5" width="30" height="30" as="geometry" />
        </mxCell>
        <mxCell id="ATV0B9zLNPPL4cUdhzJt-5" value="" style="html=1;verticalLabelPosition=bottom;align=center;labelBackgroundColor=#ffffff;verticalAlign=top;strokeWidth=2;strokeColor=#0080F0;shadow=0;dashed=0;shape=mxgraph.ios7.icons.user;" vertex="1" parent="1">
          <mxGeometry x="2063" y="62.1" width="30" height="30" as="geometry" />
        </mxCell>
        <mxCell id="ATV0B9zLNPPL4cUdhzJt-6" value="" style="endArrow=none;html=1;rounded=0;" edge="1" parent="1">
          <mxGeometry width="50" height="50" relative="1" as="geometry">
            <mxPoint x="1540" y="75" as="sourcePoint" />
            <mxPoint x="1560" y="75" as="targetPoint" />
          </mxGeometry>
        </mxCell>
        <mxCell id="ATV0B9zLNPPL4cUdhzJt-7" value="" style="endArrow=none;html=1;rounded=0;" edge="1" parent="1">
          <mxGeometry width="50" height="50" relative="1" as="geometry">
            <mxPoint x="1540" y="528.82" as="sourcePoint" />
            <mxPoint x="1560" y="529" as="targetPoint" />
          </mxGeometry>
        </mxCell>
        <mxCell id="ATV0B9zLNPPL4cUdhzJt-8" value="" style="shape=image;html=1;verticalAlign=top;verticalLabelPosition=bottom;labelBackgroundColor=#ffffff;imageAspect=0;aspect=fixed;image=https://cdn4.iconfinder.com/data/icons/evil-icons-user-interface/64/basket-128.png" vertex="1" parent="1">
          <mxGeometry x="2060" y="207" width="36" height="36" as="geometry" />
        </mxCell>
        <mxCell id="ATV0B9zLNPPL4cUdhzJt-11" value="" style="shape=image;html=1;verticalAlign=top;verticalLabelPosition=bottom;labelBackgroundColor=#ffffff;imageAspect=0;aspect=fixed;image=https://cdn4.iconfinder.com/data/icons/evil-icons-user-interface/64/basket-128.png" vertex="1" parent="1">
          <mxGeometry x="2060" y="302" width="36" height="36" as="geometry" />
        </mxCell>
        <mxCell id="ATV0B9zLNPPL4cUdhzJt-12" value="" style="shape=image;html=1;verticalAlign=top;verticalLabelPosition=bottom;labelBackgroundColor=#ffffff;imageAspect=0;aspect=fixed;image=https://cdn4.iconfinder.com/data/icons/evil-icons-user-interface/64/basket-128.png" vertex="1" parent="1">
          <mxGeometry x="2060" y="397" width="36" height="36" as="geometry" />
        </mxCell>
        <mxCell id="ATV0B9zLNPPL4cUdhzJt-13" value="" style="shape=image;html=1;verticalAlign=top;verticalLabelPosition=bottom;labelBackgroundColor=#ffffff;imageAspect=0;aspect=fixed;image=https://cdn4.iconfinder.com/data/icons/evil-icons-user-interface/64/basket-128.png" vertex="1" parent="1">
          <mxGeometry x="2063" y="492" width="36" height="36" as="geometry" />
        </mxCell>
        <mxCell id="6db1OodYi0LSPv14cQQK-14" style="edgeStyle=orthogonalEdgeStyle;rounded=0;orthogonalLoop=1;jettySize=auto;html=1;strokeColor=#CC0000;strokeWidth=2;" edge="1" parent="1" source="ATV0B9zLNPPL4cUdhzJt-14">
          <mxGeometry relative="1" as="geometry">
            <mxPoint x="2010" y="640" as="targetPoint" />
            <Array as="points">
              <mxPoint x="2081" y="585" />
              <mxPoint x="2010" y="585" />
              <mxPoint x="2010" y="640" />
            </Array>
          </mxGeometry>
        </mxCell>
        <mxCell id="ATV0B9zLNPPL4cUdhzJt-14" value="" style="rounded=1;whiteSpace=wrap;html=1;fillColor=none;strokeWidth=2;strokeColor=#FF0000;" vertex="1" parent="1">
          <mxGeometry x="2066" y="492" width="30" height="38" as="geometry" />
        </mxCell>
        <mxCell id="ATV0B9zLNPPL4cUdhzJt-17" value="&lt;font style=&quot;font-size: 14px;&quot;&gt;&lt;b&gt;Кнопка удаления видео из избранного&lt;/b&gt;&lt;/font&gt;" style="text;html=1;align=center;verticalAlign=middle;resizable=0;points=[];autosize=1;strokeColor=none;fillColor=none;" vertex="1" parent="1">
          <mxGeometry x="1860" y="630" width="290" height="30" as="geometry" />
        </mxCell>
        <mxCell id="CNAPJQVcdsXgHTbzYZQy-90" value="&lt;span style=&quot;font-size: 14px;&quot;&gt;&lt;b&gt;Добавляет видео в избранное&lt;/b&gt;&lt;/span&gt;&lt;div&gt;&lt;span style=&quot;font-size: 14px;&quot;&gt;&lt;b&gt;и меняет цвет, при повторном&amp;nbsp;&lt;/b&gt;&lt;/span&gt;&lt;/div&gt;&lt;div&gt;&lt;span style=&quot;font-size: 14px;&quot;&gt;&lt;b&gt;нажатии удаляет видео из избранного&amp;nbsp;&lt;/b&gt;&lt;/span&gt;&lt;/div&gt;&lt;div&gt;&lt;span style=&quot;font-size: 14px;&quot;&gt;&lt;b&gt;и меняет цвет в исходный&lt;/b&gt;&lt;/span&gt;&lt;/div&gt;" style="text;html=1;align=center;verticalAlign=middle;resizable=0;points=[];autosize=1;strokeColor=none;fillColor=none;" vertex="1" parent="1">
          <mxGeometry x="895" y="672.5" width="290" height="80" as="geometry" />
        </mxCell>
        <mxCell id="CNAPJQVcdsXgHTbzYZQy-124" value="&lt;b&gt;Добавить&lt;/b&gt;" style="text;html=1;align=center;verticalAlign=middle;resizable=0;points=[];autosize=1;strokeColor=none;fillColor=none;" vertex="1" parent="1">
          <mxGeometry x="1015" y="747.5" width="80" height="30" as="geometry" />
        </mxCell>
        <mxCell id="ATV0B9zLNPPL4cUdhzJt-23" value="" style="shape=image;html=1;verticalAlign=top;verticalLabelPosition=bottom;labelBackgroundColor=#ffffff;imageAspect=0;aspect=fixed;image=https://cdn4.iconfinder.com/data/icons/evil-icons-user-interface/64/basket-128.png" vertex="1" parent="1">
          <mxGeometry x="1995" y="650" width="36" height="36" as="geometry" />
        </mxCell>
        <mxCell id="6db1OodYi0LSPv14cQQK-10" value="" style="triangle;html=1;whiteSpace=wrap;fillColor=#FF9999;" vertex="1" parent="1">
          <mxGeometry x="1870" y="311" width="10" height="18" as="geometry" />
        </mxCell>
        <mxCell id="6db1OodYi0LSPv14cQQK-15" value="" style="rounded=0;whiteSpace=wrap;html=1;fillColor=#CCCCCC;fontColor=#333333;strokeColor=#666666;" vertex="1" parent="1">
          <mxGeometry x="2100" y="40" width="20" height="520" as="geometry" />
        </mxCell>
        <mxCell id="6db1OodYi0LSPv14cQQK-16" value="" style="rounded=0;whiteSpace=wrap;html=1;fillColor=#647687;fontColor=#ffffff;strokeColor=#314354;" vertex="1" parent="1">
          <mxGeometry x="2105" y="90" width="10" height="90" as="geometry" />
        </mxCell>
        <mxCell id="6db1OodYi0LSPv14cQQK-17" value="" style="triangle;whiteSpace=wrap;html=1;direction=north;fillColor=#647687;fontColor=#ffffff;strokeColor=#314354;" vertex="1" parent="1">
          <mxGeometry x="2105" y="47.5" width="10" height="20" as="geometry" />
        </mxCell>
        <mxCell id="6db1OodYi0LSPv14cQQK-18" value="" style="triangle;whiteSpace=wrap;html=1;direction=south;fillColor=#647687;fontColor=#ffffff;strokeColor=#314354;" vertex="1" parent="1">
          <mxGeometry x="2105" y="535" width="10" height="20" as="geometry" />
        </mxCell>
        <mxCell id="6db1OodYi0LSPv14cQQK-21" value="" style="endArrow=none;html=1;rounded=0;" edge="1" parent="1">
          <mxGeometry width="50" height="50" relative="1" as="geometry">
            <mxPoint x="2099" y="526.57" as="sourcePoint" />
            <mxPoint x="2120" y="527" as="targetPoint" />
          </mxGeometry>
        </mxCell>
        <mxCell id="6db1OodYi0LSPv14cQQK-22" value="" style="endArrow=none;html=1;rounded=0;" edge="1" parent="1">
          <mxGeometry width="50" height="50" relative="1" as="geometry">
            <mxPoint x="2099" y="73.57000000000005" as="sourcePoint" />
            <mxPoint x="2120" y="74" as="targetPoint" />
          </mxGeometry>
        </mxCell>
        <mxCell id="6db1OodYi0LSPv14cQQK-26" style="edgeStyle=orthogonalEdgeStyle;rounded=0;orthogonalLoop=1;jettySize=auto;html=1;exitX=0.5;exitY=0;exitDx=0;exitDy=0;entryX=0.3;entryY=0;entryDx=0;entryDy=0;entryPerimeter=0;strokeColor=#CC0000;strokeWidth=2;" edge="1" parent="1" source="CNAPJQVcdsXgHTbzYZQy-104" target="6db1OodYi0LSPv14cQQK-1">
          <mxGeometry relative="1" as="geometry">
            <Array as="points">
              <mxPoint x="774" />
              <mxPoint x="1840" />
            </Array>
          </mxGeometry>
        </mxCell>
        <mxCell id="6db1OodYi0LSPv14cQQK-28" value="" style="verticalLabelPosition=bottom;shadow=0;dashed=0;align=center;html=1;verticalAlign=top;strokeWidth=3;shape=mxgraph.mockup.containers.videoPlayer;strokeColor=#333333;strokeColor2=#008cff;strokeColor3=#c4c4c4;textColor=#666666;fillColor2=#008cff;barHeight=30;barPos=20;" vertex="1" parent="1">
          <mxGeometry x="1170" y="102.9" width="360" height="297.1" as="geometry" />
        </mxCell>
        <mxCell id="6db1OodYi0LSPv14cQQK-31" value="" style="rounded=1;whiteSpace=wrap;html=1;fillColor=#E6E6E6;" vertex="1" parent="1">
          <mxGeometry x="1180" y="51.25" width="90" height="35" as="geometry" />
        </mxCell>
        <mxCell id="6db1OodYi0LSPv14cQQK-32" value="" style="rounded=1;whiteSpace=wrap;html=1;fillColor=#E6E6E6;" vertex="1" parent="1">
          <mxGeometry x="1290" y="51.25" width="90" height="35" as="geometry" />
        </mxCell>
        <mxCell id="6db1OodYi0LSPv14cQQK-33" value="" style="sketch=0;pointerEvents=1;shadow=0;dashed=0;html=1;strokeColor=none;fillColor=#666666;labelPosition=center;verticalLabelPosition=bottom;verticalAlign=top;outlineConnect=0;align=center;shape=mxgraph.office.concepts.home;" vertex="1" parent="1">
          <mxGeometry x="1190" y="58.75" width="20" height="20" as="geometry" />
        </mxCell>
        <mxCell id="6db1OodYi0LSPv14cQQK-34" value="&lt;font style=&quot;font-size: 11px;&quot;&gt;&lt;b style=&quot;&quot;&gt;Главная&lt;/b&gt;&lt;/font&gt;" style="text;html=1;align=center;verticalAlign=middle;resizable=0;points=[];autosize=1;strokeColor=none;fillColor=none;" vertex="1" parent="1">
          <mxGeometry x="1206" y="58.75" width="70" height="30" as="geometry" />
        </mxCell>
        <mxCell id="6db1OodYi0LSPv14cQQK-36" value="" style="verticalLabelPosition=bottom;verticalAlign=top;html=1;shape=mxgraph.basic.heart;fillColor=#666666;" vertex="1" parent="1">
          <mxGeometry x="1300" y="62.5" width="20" height="15" as="geometry" />
        </mxCell>
        <mxCell id="6db1OodYi0LSPv14cQQK-37" value="&lt;b&gt;&lt;font style=&quot;font-size: 10px;&quot;&gt;Избранное&lt;/font&gt;&lt;/b&gt;" style="text;html=1;align=center;verticalAlign=middle;resizable=0;points=[];autosize=1;strokeColor=none;fillColor=none;" vertex="1" parent="1">
          <mxGeometry x="1310" y="57.5" width="80" height="30" as="geometry" />
        </mxCell>
        <mxCell id="6db1OodYi0LSPv14cQQK-57" value="" style="rounded=1;whiteSpace=wrap;html=1;fillColor=#d5e8d4;strokeColor=#82b366;" vertex="1" parent="1">
          <mxGeometry x="1400" y="410" width="120" height="20" as="geometry" />
        </mxCell>
        <mxCell id="6db1OodYi0LSPv14cQQK-58" value="&lt;b&gt;Добавить&lt;/b&gt;" style="text;html=1;align=center;verticalAlign=middle;resizable=0;points=[];autosize=1;strokeColor=none;fillColor=none;" vertex="1" parent="1">
          <mxGeometry x="1430" y="406" width="80" height="30" as="geometry" />
        </mxCell>
        <mxCell id="6db1OodYi0LSPv14cQQK-59" value="" style="verticalLabelPosition=bottom;verticalAlign=top;html=1;shape=mxgraph.basic.heart;fillColor=#f8cecc;strokeColor=#b85450;" vertex="1" parent="1">
          <mxGeometry x="1410" y="416" width="20" height="10" as="geometry" />
        </mxCell>
        <mxCell id="6db1OodYi0LSPv14cQQK-60" value="" style="shape=mxgraph.ios7.icons.user;fillColor=#ffffff;strokeColor=#253858" vertex="1" parent="1">
          <mxGeometry x="1174" y="445" width="32" height="32" as="geometry" />
        </mxCell>
        <mxCell id="6db1OodYi0LSPv14cQQK-61" value="Jim Bunnings" style="html=1;fillColor=none;strokeColor=none;fontSize=12;align=left;fontColor=#000000;whiteSpace=wrap" vertex="1" parent="1">
          <mxGeometry x="1220" y="442" width="90" height="20" as="geometry" />
        </mxCell>
        <mxCell id="6db1OodYi0LSPv14cQQK-62" value="AUTHOR" style="rounded=1;arcSize=5;fillColor=#F2F3F5;strokeColor=none;fontColor=#596780;align=center;verticalAlign=middle;whiteSpace=wrap;fontSize=10;fontStyle=1;html=1" vertex="1" parent="1">
          <mxGeometry x="1310" y="442" width="55" height="20" as="geometry" />
        </mxCell>
        <mxCell id="6db1OodYi0LSPv14cQQK-63" value="30, August 2016" style="html=1;fillColor=none;strokeColor=none;fontSize=12;align=left;fontColor=#596780;whiteSpace=wrap" vertex="1" parent="1">
          <mxGeometry x="1390" y="442" width="110" height="20" as="geometry" />
        </mxCell>
        <mxCell id="6db1OodYi0LSPv14cQQK-64" value="Thanks for the write-up." style="html=1;fillColor=none;strokeColor=none;fontSize=12;align=left;fontColor=#000000;whiteSpace=wrap" vertex="1" parent="1">
          <mxGeometry x="1217.5" y="470" width="240" height="20" as="geometry" />
        </mxCell>
        <mxCell id="6db1OodYi0LSPv14cQQK-65" value="&lt;font style=&quot;font-size: 9px;&quot;&gt;You&#39;ve mentioned the reasons for changing the name. But what were the reasons for holding onto the old name so long? I remember &lt;font color=&quot;#4c9aff&quot; style=&quot;background-color: rgb(244 , 245 , 247)&quot;&gt;@Jesse Byler&lt;/font&gt; suggesting the name change back in January in: Re: Y U NO use Confluence&lt;/font&gt;" style="html=1;fillColor=none;strokeColor=none;fontSize=12;align=left;fontColor=#000000;whiteSpace=wrap;verticalAlign=top" vertex="1" parent="1">
          <mxGeometry x="1215.5" y="495" width="324.5" height="60" as="geometry" />
        </mxCell>
        <mxCell id="6db1OodYi0LSPv14cQQK-67" style="edgeStyle=orthogonalEdgeStyle;rounded=0;orthogonalLoop=1;jettySize=auto;html=1;exitX=0.5;exitY=0;exitDx=0;exitDy=0;entryX=0.25;entryY=0;entryDx=0;entryDy=0;strokeColor=#FF0000;strokeWidth=2;" edge="1" parent="1" source="6db1OodYi0LSPv14cQQK-66" target="x74_SV1x-cFVezhLaawV-61">
          <mxGeometry relative="1" as="geometry">
            <Array as="points">
              <mxPoint x="2075" y="-80" />
              <mxPoint x="137" y="-80" />
            </Array>
          </mxGeometry>
        </mxCell>
        <mxCell id="6db1OodYi0LSPv14cQQK-66" value="" style="rounded=1;whiteSpace=wrap;html=1;fillColor=none;strokeColor=#FF0000;strokeWidth=2;" vertex="1" parent="1">
          <mxGeometry x="2058" y="57.099999999999994" width="40" height="40" as="geometry" />
        </mxCell>
        <mxCell id="6db1OodYi0LSPv14cQQK-77" value="" style="verticalLabelPosition=bottom;verticalAlign=top;html=1;shape=mxgraph.basic.heart;fillColor=#647687;strokeColor=#314354;fontColor=#ffffff;" vertex="1" parent="1">
          <mxGeometry x="290" y="365" width="20" height="20" as="geometry" />
        </mxCell>
        <mxCell id="6db1OodYi0LSPv14cQQK-78" value="" style="verticalLabelPosition=bottom;verticalAlign=top;html=1;shape=mxgraph.basic.heart;fillColor=#647687;strokeColor=#314354;fontColor=#ffffff;" vertex="1" parent="1">
          <mxGeometry x="290" y="255" width="20" height="20" as="geometry" />
        </mxCell>
        <mxCell id="6db1OodYi0LSPv14cQQK-79" value="" style="verticalLabelPosition=bottom;verticalAlign=top;html=1;shape=mxgraph.basic.heart;fillColor=#647687;strokeColor=#314354;fontColor=#ffffff;" vertex="1" parent="1">
          <mxGeometry x="290" y="147.5" width="20" height="20" as="geometry" />
        </mxCell>
        <mxCell id="6db1OodYi0LSPv14cQQK-80" value="" style="verticalLabelPosition=bottom;verticalAlign=top;html=1;shape=mxgraph.basic.heart;fillColor=#647687;strokeColor=#314354;fontColor=#ffffff;" vertex="1" parent="1">
          <mxGeometry x="160" y="147.5" width="20" height="20" as="geometry" />
        </mxCell>
        <mxCell id="6db1OodYi0LSPv14cQQK-81" value="" style="verticalLabelPosition=bottom;verticalAlign=top;html=1;shape=mxgraph.basic.heart;fillColor=#647687;strokeColor=#314354;fontColor=#ffffff;" vertex="1" parent="1">
          <mxGeometry x="160" y="253.75" width="20" height="20" as="geometry" />
        </mxCell>
        <mxCell id="6db1OodYi0LSPv14cQQK-82" value="" style="verticalLabelPosition=bottom;verticalAlign=top;html=1;shape=mxgraph.basic.heart;fillColor=#647687;strokeColor=#314354;fontColor=#ffffff;" vertex="1" parent="1">
          <mxGeometry x="160" y="365" width="20" height="20" as="geometry" />
        </mxCell>
        <mxCell id="6db1OodYi0LSPv14cQQK-83" value="" style="verticalLabelPosition=bottom;verticalAlign=top;html=1;shape=mxgraph.basic.heart;fillColor=#647687;strokeColor=#314354;fontColor=#ffffff;" vertex="1" parent="1">
          <mxGeometry x="290" y="472" width="20" height="20" as="geometry" />
        </mxCell>
        <mxCell id="6db1OodYi0LSPv14cQQK-84" value="" style="verticalLabelPosition=bottom;verticalAlign=top;html=1;shape=mxgraph.basic.heart;fillColor=#647687;strokeColor=#314354;fontColor=#ffffff;" vertex="1" parent="1">
          <mxGeometry x="160" y="477" width="20" height="20" as="geometry" />
        </mxCell>
        <mxCell id="6db1OodYi0LSPv14cQQK-85" value="&lt;font style=&quot;font-size: 18px;&quot;&gt;&lt;b&gt;Видео№6&lt;/b&gt;&lt;/font&gt;" style="text;strokeColor=none;align=center;fillColor=none;html=1;verticalAlign=middle;whiteSpace=wrap;rounded=0;" vertex="1" parent="1">
          <mxGeometry x="1290" y="195" width="120" height="87.5" as="geometry" />
        </mxCell>
        <mxCell id="6db1OodYi0LSPv14cQQK-88" value="" style="ellipse;whiteSpace=wrap;html=1;aspect=fixed;fillColor=none;strokeColor=#FF0000;strokeWidth=2;" vertex="1" parent="1">
          <mxGeometry x="282" y="357" width="38" height="38" as="geometry" />
        </mxCell>
        <mxCell id="6db1OodYi0LSPv14cQQK-92" value="&lt;b&gt;Поиск&lt;/b&gt;" style="rounded=1;whiteSpace=wrap;html=1;" vertex="1" parent="1">
          <mxGeometry x="190" y="660" width="170" height="30" as="geometry" />
        </mxCell>
        <mxCell id="6db1OodYi0LSPv14cQQK-93" value="" style="shape=image;html=1;verticalAlign=top;verticalLabelPosition=bottom;labelBackgroundColor=#ffffff;imageAspect=0;aspect=fixed;image=https://cdn4.iconfinder.com/data/icons/evil-icons-user-interface/64/magnifier-128.png" vertex="1" parent="1">
          <mxGeometry x="330" y="660" width="30" height="30" as="geometry" />
        </mxCell>
        <mxCell id="6db1OodYi0LSPv14cQQK-94" value="" style="rounded=0;whiteSpace=wrap;html=1;fillColor=#CCCCCC;fontColor=#333333;strokeColor=#666666;" vertex="1" parent="1">
          <mxGeometry x="420" y="640" width="20" height="520" as="geometry" />
        </mxCell>
        <mxCell id="6db1OodYi0LSPv14cQQK-95" value="" style="rounded=0;whiteSpace=wrap;html=1;fillColor=#647687;fontColor=#ffffff;strokeColor=#314354;" vertex="1" parent="1">
          <mxGeometry x="425" y="690" width="10" height="90" as="geometry" />
        </mxCell>
        <mxCell id="6db1OodYi0LSPv14cQQK-96" value="" style="triangle;whiteSpace=wrap;html=1;direction=north;fillColor=#647687;fontColor=#ffffff;strokeColor=#314354;" vertex="1" parent="1">
          <mxGeometry x="425" y="647.5" width="10" height="20" as="geometry" />
        </mxCell>
        <mxCell id="6db1OodYi0LSPv14cQQK-97" value="" style="triangle;whiteSpace=wrap;html=1;direction=south;fillColor=#647687;fontColor=#ffffff;strokeColor=#314354;" vertex="1" parent="1">
          <mxGeometry x="425" y="1135" width="10" height="20" as="geometry" />
        </mxCell>
        <mxCell id="6db1OodYi0LSPv14cQQK-98" value="" style="endArrow=none;html=1;rounded=0;" edge="1" parent="1">
          <mxGeometry width="50" height="50" relative="1" as="geometry">
            <mxPoint x="420" y="1130" as="sourcePoint" />
            <mxPoint x="440" y="1130" as="targetPoint" />
          </mxGeometry>
        </mxCell>
        <mxCell id="6db1OodYi0LSPv14cQQK-99" value="&lt;b&gt;Видео№1&lt;/b&gt;" style="rounded=1;whiteSpace=wrap;html=1;shadow=1;" vertex="1" parent="1">
          <mxGeometry x="150" y="740" width="120" height="60" as="geometry" />
        </mxCell>
        <mxCell id="6db1OodYi0LSPv14cQQK-100" value="&lt;b&gt;Видео№2&lt;/b&gt;" style="rounded=1;whiteSpace=wrap;html=1;shadow=1;" vertex="1" parent="1">
          <mxGeometry x="285" y="740" width="120" height="60" as="geometry" />
        </mxCell>
        <mxCell id="6db1OodYi0LSPv14cQQK-101" value="&lt;b&gt;Видео№3&lt;/b&gt;" style="rounded=1;whiteSpace=wrap;html=1;shadow=1;" vertex="1" parent="1">
          <mxGeometry x="150" y="850" width="120" height="60" as="geometry" />
        </mxCell>
        <mxCell id="6db1OodYi0LSPv14cQQK-102" value="&lt;b&gt;Видео№4&lt;/b&gt;" style="rounded=1;whiteSpace=wrap;html=1;shadow=1;" vertex="1" parent="1">
          <mxGeometry x="285" y="850" width="120" height="60" as="geometry" />
        </mxCell>
        <mxCell id="6db1OodYi0LSPv14cQQK-103" value="&lt;b&gt;Видео№5&lt;/b&gt;" style="rounded=1;whiteSpace=wrap;html=1;shadow=1;" vertex="1" parent="1">
          <mxGeometry x="150" y="960" width="120" height="60" as="geometry" />
        </mxCell>
        <mxCell id="6db1OodYi0LSPv14cQQK-104" value="&lt;b&gt;Видео№6&lt;/b&gt;" style="rounded=1;whiteSpace=wrap;html=1;shadow=1;" vertex="1" parent="1">
          <mxGeometry x="285" y="960" width="120" height="60" as="geometry" />
        </mxCell>
        <mxCell id="6db1OodYi0LSPv14cQQK-105" value="&lt;b&gt;Видео№7&lt;/b&gt;" style="rounded=1;whiteSpace=wrap;html=1;shadow=1;" vertex="1" parent="1">
          <mxGeometry x="150" y="1070" width="120" height="60" as="geometry" />
        </mxCell>
        <mxCell id="6db1OodYi0LSPv14cQQK-106" value="&lt;b&gt;Видео№9&lt;/b&gt;" style="rounded=1;whiteSpace=wrap;html=1;shadow=1;" vertex="1" parent="1">
          <mxGeometry x="285" y="1070" width="120" height="60" as="geometry" />
        </mxCell>
        <mxCell id="6db1OodYi0LSPv14cQQK-107" value="&lt;i&gt;Название видео №1&lt;/i&gt;" style="text;html=1;align=center;verticalAlign=middle;resizable=0;points=[];autosize=1;strokeColor=none;fillColor=none;" vertex="1" parent="1">
          <mxGeometry x="140" y="800" width="140" height="30" as="geometry" />
        </mxCell>
        <mxCell id="6db1OodYi0LSPv14cQQK-108" value="&lt;i&gt;Название видео №2&lt;/i&gt;" style="text;html=1;align=center;verticalAlign=middle;resizable=0;points=[];autosize=1;strokeColor=none;fillColor=none;" vertex="1" parent="1">
          <mxGeometry x="270" y="800" width="140" height="30" as="geometry" />
        </mxCell>
        <mxCell id="6db1OodYi0LSPv14cQQK-109" value="&lt;i&gt;Название видео №3&lt;/i&gt;" style="text;html=1;align=center;verticalAlign=middle;resizable=0;points=[];autosize=1;strokeColor=none;fillColor=none;" vertex="1" parent="1">
          <mxGeometry x="140" y="910" width="140" height="30" as="geometry" />
        </mxCell>
        <mxCell id="6db1OodYi0LSPv14cQQK-110" value="&lt;i&gt;Название видео №4&lt;/i&gt;" style="text;html=1;align=center;verticalAlign=middle;resizable=0;points=[];autosize=1;strokeColor=none;fillColor=none;" vertex="1" parent="1">
          <mxGeometry x="270" y="910" width="140" height="30" as="geometry" />
        </mxCell>
        <mxCell id="6db1OodYi0LSPv14cQQK-111" value="&lt;i&gt;Название видео №5&lt;/i&gt;" style="text;html=1;align=center;verticalAlign=middle;resizable=0;points=[];autosize=1;strokeColor=none;fillColor=none;" vertex="1" parent="1">
          <mxGeometry x="140" y="1020" width="140" height="30" as="geometry" />
        </mxCell>
        <mxCell id="6db1OodYi0LSPv14cQQK-112" value="&lt;i&gt;Название видео №6&lt;/i&gt;" style="text;html=1;align=center;verticalAlign=middle;resizable=0;points=[];autosize=1;strokeColor=none;fillColor=none;" vertex="1" parent="1">
          <mxGeometry x="274" y="1020" width="140" height="30" as="geometry" />
        </mxCell>
        <mxCell id="6db1OodYi0LSPv14cQQK-113" value="&lt;i&gt;Название видео №7&lt;/i&gt;" style="text;html=1;align=center;verticalAlign=middle;resizable=0;points=[];autosize=1;strokeColor=none;fillColor=none;" vertex="1" parent="1">
          <mxGeometry x="140" y="1130" width="140" height="30" as="geometry" />
        </mxCell>
        <mxCell id="6db1OodYi0LSPv14cQQK-114" value="&lt;i&gt;Название видео №8&lt;/i&gt;" style="text;html=1;align=center;verticalAlign=middle;resizable=0;points=[];autosize=1;strokeColor=none;fillColor=none;" vertex="1" parent="1">
          <mxGeometry x="275" y="1130" width="140" height="30" as="geometry" />
        </mxCell>
        <mxCell id="6db1OodYi0LSPv14cQQK-115" value="" style="triangle;html=1;whiteSpace=wrap;fillColor=#FF9999;" vertex="1" parent="1">
          <mxGeometry x="380" y="760" width="10" height="20" as="geometry" />
        </mxCell>
        <mxCell id="6db1OodYi0LSPv14cQQK-116" value="" style="triangle;html=1;whiteSpace=wrap;fillColor=#FF9999;" vertex="1" parent="1">
          <mxGeometry x="380" y="870" width="10" height="20" as="geometry" />
        </mxCell>
        <mxCell id="6db1OodYi0LSPv14cQQK-117" value="" style="triangle;html=1;whiteSpace=wrap;fillColor=#FF9999;" vertex="1" parent="1">
          <mxGeometry x="380" y="980" width="10" height="20" as="geometry" />
        </mxCell>
        <mxCell id="6db1OodYi0LSPv14cQQK-118" value="" style="triangle;html=1;whiteSpace=wrap;fillColor=#FF9999;" vertex="1" parent="1">
          <mxGeometry x="380" y="1090" width="10" height="20" as="geometry" />
        </mxCell>
        <mxCell id="6db1OodYi0LSPv14cQQK-119" value="" style="triangle;html=1;whiteSpace=wrap;fillColor=#FF9999;" vertex="1" parent="1">
          <mxGeometry x="245" y="760" width="10" height="20" as="geometry" />
        </mxCell>
        <mxCell id="6db1OodYi0LSPv14cQQK-120" value="" style="triangle;html=1;whiteSpace=wrap;fillColor=#FF9999;" vertex="1" parent="1">
          <mxGeometry x="245" y="870" width="10" height="20" as="geometry" />
        </mxCell>
        <mxCell id="6db1OodYi0LSPv14cQQK-121" value="" style="triangle;html=1;whiteSpace=wrap;fillColor=#FF9999;" vertex="1" parent="1">
          <mxGeometry x="245" y="980" width="10" height="20" as="geometry" />
        </mxCell>
        <mxCell id="6db1OodYi0LSPv14cQQK-122" value="" style="triangle;html=1;whiteSpace=wrap;fillColor=#FF9999;" vertex="1" parent="1">
          <mxGeometry x="245" y="1090" width="10" height="20" as="geometry" />
        </mxCell>
        <mxCell id="6db1OodYi0LSPv14cQQK-123" value="" style="rounded=1;whiteSpace=wrap;html=1;fillColor=#E6E6E6;" vertex="1" parent="1">
          <mxGeometry x="50" y="747.5" width="90" height="35" as="geometry" />
        </mxCell>
        <mxCell id="6db1OodYi0LSPv14cQQK-124" value="" style="sketch=0;pointerEvents=1;shadow=0;dashed=0;html=1;strokeColor=none;fillColor=#666666;labelPosition=center;verticalLabelPosition=bottom;verticalAlign=top;outlineConnect=0;align=center;shape=mxgraph.office.concepts.home;" vertex="1" parent="1">
          <mxGeometry x="60" y="755" width="20" height="20" as="geometry" />
        </mxCell>
        <mxCell id="6db1OodYi0LSPv14cQQK-125" value="&lt;b&gt;&lt;font style=&quot;font-size: 9px;&quot;&gt;Главная&lt;/font&gt;&lt;/b&gt;" style="text;html=1;align=center;verticalAlign=middle;resizable=0;points=[];autosize=1;strokeColor=none;fillColor=none;" vertex="1" parent="1">
          <mxGeometry x="75" y="752.5" width="60" height="30" as="geometry" />
        </mxCell>
        <mxCell id="6db1OodYi0LSPv14cQQK-126" value="" style="endArrow=none;html=1;rounded=0;" edge="1" parent="1">
          <mxGeometry width="50" height="50" relative="1" as="geometry">
            <mxPoint x="420" y="677" as="sourcePoint" />
            <mxPoint x="440" y="677" as="targetPoint" />
          </mxGeometry>
        </mxCell>
        <mxCell id="6db1OodYi0LSPv14cQQK-127" value="" style="dashed=0;outlineConnect=0;html=1;align=center;labelPosition=center;verticalLabelPosition=bottom;verticalAlign=top;shape=mxgraph.weblogos.youtube;fillColor=#FF2626;gradientColor=#B5171F" vertex="1" parent="1">
          <mxGeometry x="50" y="657.1" width="90" height="35.8" as="geometry" />
        </mxCell>
        <mxCell id="6db1OodYi0LSPv14cQQK-128" value="" style="rounded=1;whiteSpace=wrap;html=1;fillColor=#E6E6E6;" vertex="1" parent="1">
          <mxGeometry x="50" y="800" width="90" height="35" as="geometry" />
        </mxCell>
        <mxCell id="6db1OodYi0LSPv14cQQK-129" value="" style="verticalLabelPosition=bottom;verticalAlign=top;html=1;shape=mxgraph.basic.heart;fillColor=#666666;" vertex="1" parent="1">
          <mxGeometry x="60" y="807.5" width="20" height="20" as="geometry" />
        </mxCell>
        <mxCell id="6db1OodYi0LSPv14cQQK-130" value="&lt;b&gt;&lt;font style=&quot;font-size: 10px;&quot;&gt;Избранное&lt;/font&gt;&lt;/b&gt;" style="text;html=1;align=center;verticalAlign=middle;resizable=0;points=[];autosize=1;strokeColor=none;fillColor=none;" vertex="1" parent="1">
          <mxGeometry x="70" y="802.5" width="80" height="30" as="geometry" />
        </mxCell>
        <mxCell id="6db1OodYi0LSPv14cQQK-132" value="" style="rounded=1;whiteSpace=wrap;html=1;fillColor=none;strokeWidth=2;strokeColor=#FF0000;" vertex="1" parent="1">
          <mxGeometry x="45" y="792.5" width="100" height="50" as="geometry" />
        </mxCell>
        <mxCell id="6db1OodYi0LSPv14cQQK-133" value="" style="sketch=0;pointerEvents=1;shadow=0;dashed=0;html=1;strokeColor=none;fillColor=#666666;labelPosition=center;verticalLabelPosition=bottom;verticalAlign=top;outlineConnect=0;align=center;shape=mxgraph.office.concepts.home;" vertex="1" parent="1">
          <mxGeometry x="60" y="755" width="20" height="20" as="geometry" />
        </mxCell>
        <mxCell id="6db1OodYi0LSPv14cQQK-134" value="" style="html=1;verticalLabelPosition=bottom;align=center;labelBackgroundColor=#ffffff;verticalAlign=top;strokeWidth=2;strokeColor=#0080F0;shadow=0;dashed=0;shape=mxgraph.ios7.icons.user;" vertex="1" parent="1">
          <mxGeometry x="380" y="660" width="30" height="30" as="geometry" />
        </mxCell>
        <mxCell id="6db1OodYi0LSPv14cQQK-135" value="" style="verticalLabelPosition=bottom;verticalAlign=top;html=1;shape=mxgraph.basic.heart;fillColor=#a20025;strokeColor=#6F0000;fontColor=#ffffff;" vertex="1" parent="1">
          <mxGeometry x="290" y="965" width="20" height="20" as="geometry" />
        </mxCell>
        <mxCell id="6db1OodYi0LSPv14cQQK-136" value="" style="verticalLabelPosition=bottom;verticalAlign=top;html=1;shape=mxgraph.basic.heart;fillColor=#647687;strokeColor=#314354;fontColor=#ffffff;" vertex="1" parent="1">
          <mxGeometry x="290" y="855" width="20" height="20" as="geometry" />
        </mxCell>
        <mxCell id="6db1OodYi0LSPv14cQQK-137" value="" style="verticalLabelPosition=bottom;verticalAlign=top;html=1;shape=mxgraph.basic.heart;fillColor=#647687;strokeColor=#314354;fontColor=#ffffff;" vertex="1" parent="1">
          <mxGeometry x="290" y="747.5" width="20" height="20" as="geometry" />
        </mxCell>
        <mxCell id="6db1OodYi0LSPv14cQQK-138" value="" style="verticalLabelPosition=bottom;verticalAlign=top;html=1;shape=mxgraph.basic.heart;fillColor=#647687;strokeColor=#314354;fontColor=#ffffff;" vertex="1" parent="1">
          <mxGeometry x="160" y="747.5" width="20" height="20" as="geometry" />
        </mxCell>
        <mxCell id="6db1OodYi0LSPv14cQQK-139" value="" style="verticalLabelPosition=bottom;verticalAlign=top;html=1;shape=mxgraph.basic.heart;fillColor=#647687;strokeColor=#314354;fontColor=#ffffff;" vertex="1" parent="1">
          <mxGeometry x="160" y="853.75" width="20" height="20" as="geometry" />
        </mxCell>
        <mxCell id="6db1OodYi0LSPv14cQQK-140" value="" style="verticalLabelPosition=bottom;verticalAlign=top;html=1;shape=mxgraph.basic.heart;fillColor=#647687;strokeColor=#314354;fontColor=#ffffff;" vertex="1" parent="1">
          <mxGeometry x="160" y="965" width="20" height="20" as="geometry" />
        </mxCell>
        <mxCell id="6db1OodYi0LSPv14cQQK-141" value="" style="verticalLabelPosition=bottom;verticalAlign=top;html=1;shape=mxgraph.basic.heart;fillColor=#647687;strokeColor=#314354;fontColor=#ffffff;" vertex="1" parent="1">
          <mxGeometry x="290" y="1072" width="20" height="20" as="geometry" />
        </mxCell>
        <mxCell id="6db1OodYi0LSPv14cQQK-142" value="" style="verticalLabelPosition=bottom;verticalAlign=top;html=1;shape=mxgraph.basic.heart;fillColor=#647687;strokeColor=#314354;fontColor=#ffffff;" vertex="1" parent="1">
          <mxGeometry x="160" y="1077" width="20" height="20" as="geometry" />
        </mxCell>
        <mxCell id="6db1OodYi0LSPv14cQQK-146" style="edgeStyle=orthogonalEdgeStyle;rounded=0;orthogonalLoop=1;jettySize=auto;html=1;entryX=0.5;entryY=1;entryDx=0;entryDy=0;strokeColor=#FF0000;strokeWidth=2;" edge="1" parent="1" source="6db1OodYi0LSPv14cQQK-143" target="6db1OodYi0LSPv14cQQK-65">
          <mxGeometry relative="1" as="geometry" />
        </mxCell>
        <mxCell id="6db1OodYi0LSPv14cQQK-143" value="" style="rounded=1;whiteSpace=wrap;html=1;fillColor=none;strokeColor=#FF0000;strokeWidth=2;" vertex="1" parent="1">
          <mxGeometry x="276.25" y="955" width="138.75" height="70" as="geometry" />
        </mxCell>
        <mxCell id="6db1OodYi0LSPv14cQQK-149" value="&lt;font style=&quot;font-size: 14px;&quot;&gt;&lt;b&gt;При нажатии меняет цвет&amp;nbsp;&lt;/b&gt;&lt;/font&gt;&lt;div&gt;&lt;font size=&quot;3&quot;&gt;&lt;b&gt;и добавляет видео в&amp;nbsp;&lt;/b&gt;&lt;/font&gt;&lt;/div&gt;&lt;div&gt;&lt;font style=&quot;&quot; size=&quot;3&quot;&gt;&lt;b&gt;избранное&lt;/b&gt;&lt;/font&gt;&lt;/div&gt;" style="text;html=1;align=center;verticalAlign=middle;resizable=0;points=[];autosize=1;strokeColor=none;fillColor=none;rotation=270;" vertex="1" parent="1">
          <mxGeometry x="425" y="645" width="210" height="70" as="geometry" />
        </mxCell>
        <mxCell id="6db1OodYi0LSPv14cQQK-150" value="" style="verticalLabelPosition=bottom;verticalAlign=top;html=1;shape=mxgraph.basic.heart;fillColor=#e51400;strokeColor=#B20000;fontColor=#ffffff;direction=north;" vertex="1" parent="1">
          <mxGeometry x="570" y="677.1" width="20" height="20" as="geometry" />
        </mxCell>
        <mxCell id="6db1OodYi0LSPv14cQQK-155" style="edgeStyle=orthogonalEdgeStyle;rounded=0;orthogonalLoop=1;jettySize=auto;html=1;strokeColor=#FF0000;strokeWidth=2;" edge="1" parent="1" source="6db1OodYi0LSPv14cQQK-88" target="6db1OodYi0LSPv14cQQK-143">
          <mxGeometry relative="1" as="geometry">
            <Array as="points">
              <mxPoint x="301" y="350" />
              <mxPoint x="500" y="350" />
              <mxPoint x="500" y="930" />
              <mxPoint x="346" y="930" />
            </Array>
          </mxGeometry>
        </mxCell>
        <mxCell id="6db1OodYi0LSPv14cQQK-156" value="&lt;b&gt;При нажатии возвращает пользователя на главную&lt;/b&gt;" style="text;html=1;align=center;verticalAlign=middle;resizable=0;points=[];autosize=1;strokeColor=none;fillColor=none;" vertex="1" parent="1">
          <mxGeometry x="840" y="-110" width="330" height="30" as="geometry" />
        </mxCell>
        <mxCell id="6db1OodYi0LSPv14cQQK-157" value="" style="html=1;verticalLabelPosition=bottom;align=center;labelBackgroundColor=#ffffff;verticalAlign=top;strokeWidth=2;strokeColor=#0080F0;shadow=0;dashed=0;shape=mxgraph.ios7.icons.user;" vertex="1" parent="1">
          <mxGeometry x="940" y="51.45" width="30" height="30" as="geometry" />
        </mxCell>
        <mxCell id="am6RYVF8aEDAroHS-XW_-2" style="edgeStyle=orthogonalEdgeStyle;rounded=0;orthogonalLoop=1;jettySize=auto;html=1;exitX=1;exitY=0.5;exitDx=0;exitDy=0;strokeColor=#FF0000;strokeWidth=2;" edge="1" parent="1" source="am6RYVF8aEDAroHS-XW_-1">
          <mxGeometry relative="1" as="geometry">
            <mxPoint x="1600" y="680" as="targetPoint" />
          </mxGeometry>
        </mxCell>
        <mxCell id="am6RYVF8aEDAroHS-XW_-1" value="" style="rounded=1;whiteSpace=wrap;html=1;fillColor=none;strokeColor=#FF0000;strokeWidth=2;" vertex="1" parent="1">
          <mxGeometry x="1395" y="407.20000000000005" width="130" height="25.8" as="geometry" />
        </mxCell>
        <mxCell id="am6RYVF8aEDAroHS-XW_-3" value="&lt;b&gt;&lt;font style=&quot;font-size: 14px;&quot;&gt;При повторном нажатии кнопки,&lt;/font&gt;&lt;/b&gt;&lt;div&gt;&lt;b&gt;&lt;font size=&quot;3&quot;&gt;удаляет видео из избранного&amp;nbsp;&lt;/font&gt;&lt;/b&gt;&lt;/div&gt;&lt;div&gt;&lt;b&gt;&lt;font size=&quot;3&quot;&gt;и меняет цвет в исходный вариант&lt;/font&gt;&lt;/b&gt;&lt;/div&gt;" style="text;html=1;align=center;verticalAlign=middle;resizable=0;points=[];autosize=1;strokeColor=none;fillColor=none;" vertex="1" parent="1">
          <mxGeometry x="1455" y="670" width="300" height="70" as="geometry" />
        </mxCell>
        <mxCell id="am6RYVF8aEDAroHS-XW_-4" value="" style="rounded=1;whiteSpace=wrap;html=1;fillColor=#E6E6E6;" vertex="1" parent="1">
          <mxGeometry x="1545" y="735" width="120" height="20" as="geometry" />
        </mxCell>
        <mxCell id="am6RYVF8aEDAroHS-XW_-5" value="" style="verticalLabelPosition=bottom;verticalAlign=top;html=1;shape=mxgraph.basic.heart;fillColor=#666666;" vertex="1" parent="1">
          <mxGeometry x="1555" y="740" width="20" height="10" as="geometry" />
        </mxCell>
        <mxCell id="am6RYVF8aEDAroHS-XW_-6" value="&lt;b&gt;Добавить&lt;/b&gt;" style="text;html=1;align=center;verticalAlign=middle;resizable=0;points=[];autosize=1;strokeColor=none;fillColor=none;" vertex="1" parent="1">
          <mxGeometry x="1574" y="730" width="80" height="30" as="geometry" />
        </mxCell>
      </root>
    </mxGraphModel>
  </diagram>
</mxfile>
